<svg xmlns="http://www.w3.org/2000/svg" xmlns:xlink="http://www.w3.org/1999/xlink" width="24" height="24" viewBox="0 0 24 24">
    <defs>
        <path id="a" d="M9.624.264a.881.881 0 0 1 1.185-.066.815.815 0 0 1 .067 1.172L9.791 2.552h.459c5.652 0 10.25 4.472 10.25 9.969 0 5.497-4.598 9.969-10.25 9.969S0 18.018 0 12.52c0-.455.378-.825.843-.825.465 0 .843.37.843.826 0 4.586 3.842 8.316 8.564 8.316 4.722 0 8.563-3.73 8.563-8.316s-3.841-8.316-8.563-8.316h-.459l1.085 1.18a.813.813 0 0 1-.067 1.173.856.856 0 0 1-1.185-.066L7.521 4.204a1.21 1.21 0 0 1 0-1.652zm4.816 8.864v1.488h-2.7v1.332c.176-.024.352-.036.528-.036.856 0 1.512.22 1.968.66.456.44.684 1.04.684 1.8 0 .816-.27 1.47-.81 1.962s-1.306.738-2.298.738c-.872 0-1.576-.14-2.112-.42v-1.656a3.401 3.401 0 0 0 1.824.504c1.072 0 1.608-.384 1.608-1.152a.815.815 0 0 0-.33-.684c-.22-.168-.55-.252-.99-.252-.616 0-1.208.132-1.776.396v-4.68h4.404zm-5.88.024V17H6.82v-5.964l-1.98 1.188v-1.788l2.208-1.284H8.56z"/>
    </defs>
    <g fill="none" fill-rule="evenodd">
        <use fill="#bfbfbf" fill-rule="nonzero" transform="translate(2 1)" xlink:href="#a"/>
    </g>
</svg>
