<svg xmlns="http://www.w3.org/2000/svg" xmlns:xlink="http://www.w3.org/1999/xlink" width="12" height="17" viewBox="0 0 12 17">
    <defs>
        <path id="a" d="M10.507.146a1.101 1.101 0 0 0-1.124.016.338.338 0 0 0-.047.034L4.408 4.364H.541a.363.363 0 0 0-.363.364v6.91A.362.362 0 0 0 .54 12l3.859-.002 4.924 4.524a.355.355 0 0 0 .059.043c.179.108.377.162.575.162a1.136 1.136 0 0 0 1.129-1.148V1.148c0-.422-.217-.796-.58-1.002zM10.36 15.58a.417.417 0 0 1-.21.37.381.381 0 0 1-.365.009l-4.88-4.484V9.82a.363.363 0 1 0-.727 0v1.453l-3.273.001V5.091h3.273v1.455a.363.363 0 1 0 .727 0v-1.65L9.78.773a.38.38 0 0 1 .37.006c.13.075.21.213.21.37V15.58z"/>
    </defs>
    <use fill="#bfbfbf" fill-rule="nonzero" xlink:href="#a"/>
</svg>
