<svg xmlns="http://www.w3.org/2000/svg" xmlns:xlink="http://www.w3.org/1999/xlink" width="24" height="24" viewBox="0 0 24 24">
    <defs>
        <path id="a" d="M15 .51a.5.5 0 0 0-.5.5v6.06a2.56 2.56 0 0 0-.64-.63C12.21 5.47 10.61 4.51 9 3.55l-.27-.16-5.1-3a2.25 2.25 0 0 0-2.38 0A2.42 2.42 0 0 0 0 2.47v12.15a2.39 2.39 0 0 0 1.13 2c.407.258.878.4 1.36.41a2.3 2.3 0 0 0 1.09-.28l5-3 .29-.18 5-2.95a2.29 2.29 0 0 0 .63-.55v6a.5.5 0 1 0 1 0v-15a.5.5 0 0 0-.5-.56zM13.34 9.8l-4.95 2.93-.29.18-5 2.95a1.2 1.2 0 0 1-.61.15 1.62 1.62 0 0 1-.84-.26A1.35 1.35 0 0 1 1 14.61V2.47a1.45 1.45 0 0 1 .74-1.28 1.28 1.28 0 0 1 1.36.03c1.72 1 3.42 2 5.11 3l.28.16c1.6 1 3.21 1.91 4.84 2.87.434.283.688.772.67 1.29a1.51 1.51 0 0 1-.66 1.26z"/>
    </defs>
    <g fill="none" fill-rule="evenodd">
        <use fill="#bfbfbf" fill-rule="nonzero" transform="translate(4 3)" xlink:href="#a"/>
    </g>
</svg>
