<svg xmlns="http://www.w3.org/2000/svg" xmlns:xlink="http://www.w3.org/1999/xlink" width="10" height="12" viewBox="0 0 10 12">
    <defs>
        <path id="a" d="M6.2 0c-.16 0-.26.12-.306.213a.598.598 0 0 0-.06.28v11.014c0 .099.014.187.06.28.047.093.145.213.306.213h3.433c.16 0 .26-.12.306-.213a.598.598 0 0 0 .061-.28V.493c0-.099-.015-.187-.061-.28C9.893.12 9.794 0 9.633 0H6.2zM.367 0C.207 0 .107.12.06.213A.598.598 0 0 0 0 .493v11.014c0 .099.015.187.061.28.046.093.145.213.306.213H3.8c.16 0 .26-.12.306-.213a.598.598 0 0 0 .06-.28V.493c0-.099-.014-.187-.06-.28C4.059.12 3.96 0 3.8 0H.367z"/>
    </defs>
    <use fill="#e02020" fill-rule="nonzero" xlink:href="#a"/>
</svg>
