<svg xmlns="http://www.w3.org/2000/svg" xmlns:xlink="http://www.w3.org/1999/xlink" width="24" height="24" viewBox="0 0 24 24">
    <defs>
        <path id="a" d="M18.09 10.347c-1.726-1.011-3.423-2.023-5.12-3.034a709.729 709.729 0 0 0-5.113-3.03A1.773 1.773 0 0 0 5.99 4.25c-.613.34-.993.999-.989 1.713v12.145c.014.648.356 1.242.903 1.568.329.21.708.322 1.095.324.294.001.584-.069.846-.204 1.73-1.012 3.429-2.025 5.126-3.037 1.697-1.011 3.394-2.023 5.12-3.037l.012-.006c.561-.368.9-1.004.898-1.687a2.006 2.006 0 0 0-.91-1.682z"/>
    </defs>
    <g fill="none" fill-rule="evenodd">
        <path d="M0 0h24v24H0z"/>
        <use fill="#e02020" fill-rule="nonzero" xlink:href="#a"/>
    </g>
</svg>
