<svg width="29" height="29" viewBox="0 0 29 29" fill="none" xmlns="http://www.w3.org/2000/svg">
<path d="M0 3.60417C0 1.61364 1.61364 0 3.60417 0H25.2292C27.2197 0 28.8333 1.61364 28.8333 3.60417V25.2292C28.8333 27.2197 27.2197 28.8333 25.2292 28.8333H3.60417C1.61364 28.8333 0 27.2197 0 25.2292V3.60417Z" fill="#1B1B1B" fill-opacity="0.6"/>
<path d="M11.5334 9.47168V19.5633L19.4626 14.5175L11.5334 9.47168Z" fill="white"/>
<path d="M3.60417 1.384H25.2292V-1.384H3.60417V1.384ZM27.4493 3.60417V25.2292H30.2173V3.60417H27.4493ZM25.2292 27.4493H3.60417V30.2173H25.2292V27.4493ZM1.384 25.2292V3.60417H-1.384V25.2292H1.384ZM3.60417 27.4493C2.378 27.4493 1.384 26.4553 1.384 25.2292H-1.384C-1.384 27.9841 0.849281 30.2173 3.60417 30.2173V27.4493ZM27.4493 25.2292C27.4493 26.4553 26.4553 27.4493 25.2292 27.4493V30.2173C27.9841 30.2173 30.2173 27.9841 30.2173 25.2292H27.4493ZM25.2292 1.384C26.4553 1.384 27.4493 2.378 27.4493 3.60417H30.2173C30.2173 0.849277 27.9841 -1.384 25.2292 -1.384V1.384ZM3.60417 -1.384C0.849277 -1.384 -1.384 0.849281 -1.384 3.60417H1.384C1.384 2.378 2.378 1.384 3.60417 1.384V-1.384Z" fill="white"/>
</svg>
