<svg xmlns="http://www.w3.org/2000/svg" xmlns:xlink="http://www.w3.org/1999/xlink" width="16" height="17" viewBox="0 0 16 17">
    <defs>
        <path id="a" d="M9.383.162c.348-.21.769-.217 1.124-.016.363.206.58.58.58 1.002V15.58a1.136 1.136 0 0 1-1.129 1.148c-.198 0-.396-.054-.575-.162a.355.355 0 0 1-.059-.043L4.4 11.999.54 12a.364.364 0 0 1-.363-.364V4.728c0-.201.162-.364.363-.364h3.867L9.336.196a.338.338 0 0 1 .047-.034zm.766.617a.38.38 0 0 0-.37-.006L4.906 4.896v1.65a.363.363 0 1 1-.727 0V5.09H.905v6.182l3.273-.001V9.819a.363.363 0 1 1 .727 0v1.656l4.88 4.484a.381.381 0 0 0 .364-.01.417.417 0 0 0 .21-.369V1.148a.417.417 0 0 0-.21-.369zm2.057 2.677l.073.013a4.93 4.93 0 0 1 3.545 4.714 4.93 4.93 0 0 1-3.545 4.713.364.364 0 0 1-.201-.699 4.2 4.2 0 0 0 3.019-4.014 4.2 4.2 0 0 0-3.02-4.015.363.363 0 1 1 .202-.699z"/>
    </defs>
    <use fill="#bfbfbf" fill-rule="nonzero" xlink:href="#a"/>
</svg>
